<svg xmlns="http://www.w3.org/2000/svg" version="1.1" xmlns:xlink="http://www.w3.org/1999/xlink" xmlns:svgjs="http://svgjs.dev/svgjs" width="1500" height="518" viewBox="0 0 1500 518"><g transform="matrix(1,0,0,1,-0.9090909090909918,0.844759329907788)"><svg viewBox="0 0 396 137" data-background-color="#ffffff" preserveAspectRatio="xMidYMid meet" height="518" width="1500" xmlns="http://www.w3.org/2000/svg" xmlns:xlink="http://www.w3.org/1999/xlink"><g id="tight-bounds" transform="matrix(1,0,0,1,0.2400000000000091,-0.22342090385592428)"><svg viewBox="0 0 395.52 137.44668324286098" height="137.44668324286098" width="395.52"><g><svg viewBox="0 0 703.3817712165232 244.43135999999998" height="137.44668324286098" width="395.52"><g transform="matrix(1,0,0,1,307.8617712165232,22.582677825542163)"><svg viewBox="0 0 395.52 199.26600434891566" height="199.26600434891566" width="395.52"><g id="textblocktransform"><svg viewBox="0 0 395.52 199.26600434891566" height="199.26600434891566" width="395.52" id="textblock"><g><svg viewBox="0 0 395.52 107.47456110154906" height="107.47456110154906" width="395.52"><g transform="matrix(1,0,0,1,0,0)"><svg width="395.52" viewBox="2.33 -31.03 116.19 31.580000000000002" height="107.47456110154906" data-palette-color="#1f00ff"><path d="M13.55 0.55L13.55 0.55Q7.98 0.55 5.15-2.18 2.33-4.9 2.33-9.98L2.33-9.98 2.33-14.33Q2.33-19.48 4.95-22.26 7.58-25.05 12.63-25.05L12.63-25.05Q16.03-25.05 18.3-23.79 20.58-22.53 21.73-20.2 22.88-17.88 22.88-14.65L22.88-14.65 22.88-13.75Q22.88-12.95 22.81-12.15 22.75-11.35 22.65-10.58L22.65-10.58 18.93-10.58Q18.98-11.78 18.99-12.85 19-13.93 19-14.83L19-14.83Q19-17.05 18.29-18.59 17.57-20.13 16.16-20.94 14.75-21.75 12.63-21.75L12.63-21.75Q9.47-21.75 7.9-19.93 6.33-18.1 6.33-14.7L6.33-14.7 6.33-12.38 6.35-11.88 6.35-9.55Q6.35-8.03 6.8-6.8 7.25-5.58 8.21-4.69 9.18-3.8 10.66-3.34 12.15-2.88 14.2-2.88L14.2-2.88Q16.57-2.88 18.63-3.5 20.68-4.13 22.48-5.2L22.48-5.2 22.1-1.7Q20.48-0.68 18.32-0.06 16.18 0.55 13.55 0.55ZM21.8-10.58L4.45-10.58 4.45-13.63 21.8-13.63 21.8-10.58ZM36.6-2.78L37.2-2.78 43.95-24.4 48.15-24.4 40.22 0 33.57 0 25.65-24.4 29.85-24.4 36.6-2.78ZM61.97 0.55L61.97 0.55Q56.4 0.55 53.57-2.18 50.75-4.9 50.75-9.98L50.75-9.98 50.75-14.33Q50.75-19.48 53.37-22.26 56-25.05 61.05-25.05L61.05-25.05Q64.45-25.05 66.72-23.79 69-22.53 70.15-20.2 71.3-17.88 71.3-14.65L71.3-14.65 71.3-13.75Q71.3-12.95 71.23-12.15 71.17-11.35 71.07-10.58L71.07-10.58 67.34-10.58Q67.4-11.78 67.41-12.85 67.42-13.93 67.42-14.83L67.42-14.83Q67.42-17.05 66.71-18.59 66-20.13 64.58-20.94 63.17-21.75 61.05-21.75L61.05-21.75Q57.9-21.75 56.32-19.93 54.75-18.1 54.75-14.7L54.75-14.7 54.75-12.38 54.77-11.88 54.77-9.55Q54.77-8.03 55.22-6.8 55.67-5.58 56.63-4.69 57.59-3.8 59.08-3.34 60.57-2.88 62.62-2.88L62.62-2.88Q65-2.88 67.05-3.5 69.09-4.13 70.9-5.2L70.9-5.2 70.52-1.7Q68.9-0.68 66.75-0.06 64.59 0.55 61.97 0.55ZM70.22-10.58L52.87-10.58 52.87-13.63 70.22-13.63 70.22-10.58ZM97.07 0L93.02 0 93.02-15.18Q93.02-17.15 92.48-18.57 91.94-20 90.73-20.79 89.52-21.58 87.42-21.58L87.42-21.58Q85.49-21.58 84.08-20.85 82.67-20.13 81.79-18.89 80.92-17.65 80.57-16.07L80.57-16.07 79.84-18.95 80.72-18.95Q81.12-20.6 82.12-21.96 83.12-23.33 84.81-24.14 86.49-24.95 88.94-24.95L88.94-24.95Q91.84-24.95 93.63-23.85 95.42-22.75 96.24-20.69 97.07-18.63 97.07-15.63L97.07-15.63 97.07 0ZM80.74 0L76.69 0 76.69-24.4 80.74-24.4 80.57-18.55 80.74-18.32 80.74 0ZM112.14 0.5L112.14 0.5Q109.32 0.5 107.59-0.35 105.87-1.2 105.09-2.93 104.32-4.65 104.32-7.23L104.32-7.23 104.32-22.63 108.32-22.63 108.32-7.7Q108.32-5.3 109.42-4.16 110.52-3.03 113.12-3.03L113.12-3.03Q114.59-3.03 115.95-3.35 117.32-3.68 118.52-4.28L118.52-4.28 118.14-0.8Q116.97-0.2 115.39 0.15 113.82 0.5 112.14 0.5ZM117.89-20.8L100.32-20.8 100.32-24.05 118.27-24.05 117.89-20.8ZM108.22-23.65L104.34-23.65 104.32-30.5 108.39-31.03 108.22-23.65Z" opacity="1" transform="matrix(1,0,0,1,0,0)" fill="#1f00ff" class="wordmark-text-0" data-fill-palette-color="primary" id="text-0"></path></svg></g></svg></g><g transform="matrix(1,0,0,1,0,132.84672558815836)"><svg viewBox="0 0 229.1047260788975 66.41927876075732" height="66.41927876075732" width="229.1047260788975"><g transform="matrix(1,0,0,1,0,0)"><svg width="229.1047260788975" viewBox="2.13 -33.13 143.91 41.730000000000004" height="66.41927876075732" data-palette-color="#1f00ff"><path d="M12.68 0.58L12.68 0.58Q10.38 0.58 8.46 0.2 6.55-0.18 5.05-0.73 3.55-1.28 2.55-1.83L2.55-1.83 2.13-5.95Q4.05-4.8 6.66-3.94 9.28-3.08 12.35-3.08L12.35-3.08Q16.05-3.08 17.82-4.39 19.6-5.7 19.6-8.33L19.6-8.33 19.6-8.72Q19.6-10.45 18.9-11.55 18.2-12.65 16.54-13.4 14.88-14.15 12.03-14.8L12.03-14.8Q8.43-15.65 6.26-16.81 4.1-17.98 3.14-19.73 2.18-21.48 2.18-24.08L2.18-24.08 2.18-24.3Q2.18-28.23 4.75-30.36 7.33-32.5 12.55-32.5L12.55-32.5Q15.98-32.5 18.39-31.8 20.8-31.1 22.33-30.25L22.33-30.25 22.7-26.45Q20.93-27.5 18.56-28.24 16.2-28.98 13.15-28.98L13.15-28.98Q10.73-28.98 9.22-28.4 7.73-27.83 7.05-26.75 6.38-25.68 6.38-24.15L6.38-24.15 6.38-24.05Q6.38-22.5 7.04-21.4 7.7-20.3 9.36-19.5 11.03-18.7 14.1-17.95L14.1-17.95Q17.63-17.13 19.75-16.05 21.88-14.98 22.84-13.25 23.8-11.53 23.8-8.75L23.8-8.75 23.8-8.22Q23.8-3.9 21.01-1.66 18.23 0.58 12.68 0.58ZM41.37 0.53L41.37 0.53Q39.12 0.53 37.47-0.23 35.82-0.98 34.8-2.38 33.77-3.78 33.42-5.63L33.42-5.63 32.1-5.63 33.27-9.43Q33.37-7.23 34.26-5.76 35.15-4.3 36.67-3.58 38.2-2.85 40.12-2.85L40.12-2.85Q43.2-2.85 44.84-4.65 46.47-6.45 46.47-9.93L46.47-9.93 46.47-14.6Q46.47-18.05 44.85-19.85 43.22-21.65 40.12-21.65L40.12-21.65Q38.27-21.65 36.85-20.93 35.42-20.2 34.48-18.95 33.55-17.7 33.2-16.1L33.2-16.1 32.2-18.93 33.37-18.93Q33.77-20.6 34.73-21.96 35.7-23.33 37.38-24.14 39.07-24.95 41.55-24.95L41.55-24.95Q45.95-24.95 48.25-22.21 50.55-19.48 50.55-14.28L50.55-14.28 50.55-10.23Q50.55-4.98 48.23-2.23 45.92 0.53 41.37 0.53ZM33.37 8.6L29.35 8.6 29.35-24.4 33.4-24.4 33.22-18.53 33.27-17.28 33.27-7 33.25-6.18 33.37 0.68 33.37 8.6ZM76.57 0L72.52 0 72.52-15.18Q72.52-17.15 71.98-18.57 71.45-20 70.23-20.79 69.02-21.58 66.92-21.58L66.92-21.58Q65-21.58 63.6-20.85 62.2-20.13 61.33-18.89 60.47-17.65 60.12-16.07L60.12-16.07 59.22-18.95 60.27-18.95Q60.65-20.6 61.65-21.96 62.65-23.33 64.33-24.14 66.02-24.95 68.45-24.95L68.45-24.95Q71.34-24.95 73.13-23.85 74.92-22.75 75.75-20.69 76.57-18.63 76.57-15.63L76.57-15.63 76.57 0ZM60.25 0L56.2 0 56.2-33.13 60.22-33.13 60.22-25.18 60.1-18.18 60.25-17.85 60.25 0ZM93.09 0.55L93.09 0.55Q87.52 0.55 84.69-2.18 81.87-4.9 81.87-9.98L81.87-9.98 81.87-14.33Q81.87-19.48 84.49-22.26 87.12-25.05 92.17-25.05L92.17-25.05Q95.57-25.05 97.84-23.79 100.12-22.53 101.27-20.2 102.42-17.88 102.42-14.65L102.42-14.65 102.42-13.75Q102.42-12.95 102.36-12.15 102.29-11.35 102.19-10.58L102.19-10.58 98.47-10.58Q98.52-11.78 98.53-12.85 98.54-13.93 98.54-14.83L98.54-14.83Q98.54-17.05 97.83-18.59 97.12-20.13 95.71-20.94 94.29-21.75 92.17-21.75L92.17-21.75Q89.02-21.75 87.44-19.93 85.87-18.1 85.87-14.7L85.87-14.7 85.87-12.38 85.89-11.88 85.89-9.55Q85.89-8.03 86.34-6.8 86.79-5.58 87.76-4.69 88.72-3.8 90.21-3.34 91.69-2.88 93.74-2.88L93.74-2.88Q96.12-2.88 98.17-3.5 100.22-4.13 102.02-5.2L102.02-5.2 101.64-1.7Q100.02-0.68 97.87-0.06 95.72 0.55 93.09 0.55ZM101.34-10.58L83.99-10.58 83.99-13.63 101.34-13.63 101.34-10.58ZM111.67-14.93L111.67-14.93 110.74-18.05 111.74-18.1Q112.54-21.2 114.49-22.99 116.44-24.78 119.67-24.78L119.67-24.78Q120.47-24.78 121.1-24.65 121.74-24.53 122.24-24.35L122.24-24.35 122.49-20.43Q121.87-20.63 121.1-20.75 120.34-20.88 119.42-20.88L119.42-20.88Q116.67-20.88 114.63-19.35 112.59-17.82 111.67-14.93ZM111.87 0L107.82 0 107.82-24.4 111.77-24.4 111.57-17.2 111.87-16.9 111.87 0ZM136.71 0.55L136.71 0.55Q131.14 0.55 128.31-2.18 125.49-4.9 125.49-9.98L125.49-9.98 125.49-14.33Q125.49-19.48 128.11-22.26 130.74-25.05 135.79-25.05L135.79-25.05Q139.19-25.05 141.46-23.79 143.74-22.53 144.89-20.2 146.04-17.88 146.04-14.65L146.04-14.65 146.04-13.75Q146.04-12.95 145.98-12.15 145.91-11.35 145.81-10.58L145.81-10.58 142.09-10.58Q142.14-11.78 142.15-12.85 142.16-13.93 142.16-14.83L142.16-14.83Q142.16-17.05 141.45-18.59 140.74-20.13 139.33-20.94 137.91-21.75 135.79-21.75L135.79-21.75Q132.64-21.75 131.06-19.93 129.49-18.1 129.49-14.7L129.49-14.7 129.49-12.38 129.51-11.88 129.51-9.55Q129.51-8.03 129.96-6.8 130.41-5.58 131.38-4.69 132.34-3.8 133.83-3.34 135.31-2.88 137.36-2.88L137.36-2.88Q139.74-2.88 141.79-3.5 143.84-4.13 145.64-5.2L145.64-5.2 145.26-1.7Q143.64-0.68 141.49-0.06 139.34 0.55 136.71 0.55ZM144.96-10.58L127.61-10.58 127.61-13.63 144.96-13.63 144.96-10.58Z" opacity="1" transform="matrix(1,0,0,1,0,0)" fill="#1f00ff" class="slogan-text-1" data-fill-palette-color="secondary" id="text-1"></path></svg></g></svg></g></svg></g></svg></g><g><svg viewBox="0 0 244.43135999999998 244.43135999999998" height="244.43135999999998" width="244.43135999999998"><g><svg viewBox="0 0 244.43135999999998 244.43135999999998" height="244.43135999999998" width="244.43135999999998"><g transform="matrix(1,0,0,1,64.60265593644992,67.20785921456968)"><svg viewBox="0 0 115.22604812710014 110.01564157086064" height="110.01564157086064" width="115.22604812710014"><g><svg xmlns="http://www.w3.org/2000/svg" xmlns:xlink="http://www.w3.org/1999/xlink" version="1.1" x="0" y="0" viewBox="6.110000000000003 7.911 76.804 73.331" enable-background="new 0 0 90 90" xml:space="preserve" height="110.01564157086064" width="115.22604812710014" class="icon-cg-0" data-fill-palette-color="accent" id="cg-0"><g fill="#ff46c5" data-fill-palette-color="accent"><path d="M82.914 22.033c0-0.829-0.672-1.5-1.5-1.5H67.719c-0.828 0-1.5 0.671-1.5 1.5v5.902c0 0.118 0.017 0.232 0.043 0.342v6.422c-0.323-0.084-0.656-0.143-1.005-0.143-2.208 0-4.004 1.796-4.004 4.004s1.796 4.004 4.004 4.004 4.005-1.796 4.005-4.004c0-0.222-0.031-0.435-0.065-0.647 0.038-0.133 0.065-0.27 0.065-0.415v-8.063H79.9v5.264c-0.323-0.084-0.655-0.143-1.004-0.143-2.208 0-4.004 1.796-4.004 4.004s1.796 4.004 4.004 4.004S82.9 40.768 82.9 38.56c0-0.222-0.031-0.435-0.065-0.647 0.038-0.133 0.065-0.27 0.065-0.415v-9.427c0.004-0.045 0.014-0.089 0.014-0.136V22.033zM69.219 23.533h10.694v2.902H69.219V23.533zM65.257 39.565c-0.554 0-1.004-0.451-1.004-1.004s0.45-1.004 1.004-1.004 1.005 0.451 1.005 1.004S65.811 39.565 65.257 39.565zM78.896 39.565c-0.554 0-1.004-0.451-1.004-1.004s0.45-1.004 1.004-1.004S79.9 38.006 79.9 38.56 79.45 39.565 78.896 39.565z" fill="#ff46c5" data-fill-palette-color="accent"></path><path d="M14.119 36.287c0-0.489-0.101-0.952-0.262-1.385v-5.386l10.694-2.04v4.971c-0.343-0.096-0.698-0.164-1.071-0.164-2.208 0-4.005 1.796-4.005 4.004s1.797 4.004 4.005 4.004 4.004-1.796 4.004-4.004c0-0.166-0.029-0.323-0.049-0.484 0.075-0.178 0.116-0.373 0.116-0.579v-9.562V19.76c0-0.447-0.199-0.871-0.544-1.156-0.346-0.285-0.8-0.401-1.237-0.318l-13.694 2.612c-0.707 0.135-1.219 0.753-1.219 1.474v5.903 4.083c-0.241-0.046-0.489-0.075-0.743-0.075-2.208 0-4.004 1.796-4.004 4.004s1.796 4.004 4.004 4.004S14.119 38.495 14.119 36.287zM23.48 37.292c-0.554 0-1.005-0.451-1.005-1.004s0.451-1.004 1.005-1.004 1.004 0.45 1.004 1.004S24.034 37.292 23.48 37.292zM13.857 23.613l10.694-2.04v2.849l-10.694 2.04V23.613zM10.114 37.292c-0.554 0-1.004-0.451-1.004-1.004s0.45-1.004 1.004-1.004c0.371 0 0.683 0.211 0.857 0.511 0.022 0.053 0.052 0.102 0.079 0.151 0.039 0.107 0.069 0.22 0.069 0.341C11.119 36.841 10.667 37.292 10.114 37.292z" fill="#ff46c5" data-fill-palette-color="accent"></path><path d="M67.062 58.822c-0.013-9.595-6.093-17.793-14.602-20.96v-5.389c0-0.829-0.672-1.5-1.5-1.5h-4.662V9.411c0-0.829-0.672-1.5-1.5-1.5s-1.5 0.671-1.5 1.5v21.562h-4.854c-0.828 0-1.5 0.671-1.5 1.5v5.366c-8.54 3.151-14.647 11.366-14.66 20.983-0.03 0.118-0.051 0.24-0.051 0.367 0 0.149 0.029 0.291 0.069 0.427 0.405 11.993 10.281 21.626 22.37 21.626s21.966-9.633 22.37-21.626c0.041-0.136 0.069-0.278 0.069-0.427C67.113 59.062 67.092 58.941 67.062 58.822zM61.398 68.617h-4.939c0.706-2.413 1.148-5.082 1.269-7.927h6.242C63.699 63.562 62.788 66.245 61.398 68.617zM25.377 60.69h6.243c0.121 2.845 0.563 5.515 1.269 7.927h-4.94C26.559 66.245 25.648 63.562 25.377 60.69zM27.558 49.762h5.276c-0.689 2.417-1.113 5.087-1.219 7.927h-6.272C25.513 54.84 26.284 52.152 27.558 49.762zM46.173 46.762v-6.004c2.333 0.672 4.427 2.866 5.966 6.004H46.173zM53.347 49.762c0.773 2.376 1.265 5.07 1.388 7.927h-8.562v-7.927H53.347zM43.173 40.759v6.004h-5.965C38.748 43.625 40.841 41.431 43.173 40.759zM43.173 49.762v7.927h-8.561c0.123-2.857 0.615-5.551 1.388-7.927H43.173zM34.618 60.69h8.555v7.927h-7.108C35.273 66.247 34.758 63.554 34.618 60.69zM43.173 71.617v5.811c-2.284-0.658-4.34-2.776-5.87-5.811H43.173zM46.173 77.428v-5.811h5.871C50.514 74.652 48.458 76.77 46.173 77.428zM46.173 68.617V60.69h8.556c-0.14 2.864-0.655 5.557-1.447 7.927H46.173zM57.733 57.69c-0.106-2.841-0.531-5.511-1.219-7.927h5.133c0.046 0 0.09-0.01 0.135-0.014 1.278 2.393 2.051 5.086 2.222 7.941C64.004 57.69 57.733 57.69 57.733 57.69zM59.806 46.762h-4.325c-1.001-2.401-2.295-4.424-3.799-5.968C54.891 42.045 57.687 44.116 59.806 46.762zM39.945 33.973h9.516v3.011c-1.543-0.338-3.144-0.521-4.787-0.521-1.622 0-3.203 0.178-4.729 0.507V33.973zM37.666 40.794c-1.505 1.544-2.799 3.567-3.799 5.968H29.54C31.66 44.116 34.456 42.044 37.666 40.794zM30.114 71.617h3.839c0.832 1.948 1.857 3.643 3.032 5.029C34.333 75.495 31.997 73.761 30.114 71.617zM52.362 76.645c1.176-1.385 2.2-3.08 3.032-5.028h3.838C57.35 73.761 55.014 75.494 52.362 76.645z" fill="#ff46c5" data-fill-palette-color="accent"></path><path d="M20.295 47.815l-5.764-2.473c-0.766-0.328-1.644 0.026-1.971 0.787-0.326 0.761 0.026 1.643 0.787 1.97l5.764 2.473c0.193 0.083 0.394 0.122 0.591 0.122 0.582 0 1.136-0.341 1.38-0.909C21.409 49.023 21.056 48.141 20.295 47.815z" fill="#ff46c5" data-fill-palette-color="accent"></path><path d="M18.341 69.122l-5.764 2.473c-0.761 0.327-1.113 1.208-0.787 1.97 0.244 0.569 0.798 0.909 1.38 0.909 0.197 0 0.397-0.039 0.591-0.122l5.764-2.473c0.761-0.327 1.113-1.208 0.787-1.97C19.985 69.147 19.105 68.793 18.341 69.122z" fill="#ff46c5" data-fill-palette-color="accent"></path><path d="M12.664 61.353l6.271-0.013c0.829-0.002 1.499-0.675 1.497-1.503s-0.673-1.497-1.5-1.497c-0.001 0-0.002 0-0.003 0l-6.271 0.013c-0.829 0.002-1.499 0.675-1.497 1.503s0.673 1.497 1.5 1.497C12.663 61.353 12.664 61.353 12.664 61.353z" fill="#ff46c5" data-fill-palette-color="accent"></path><path d="M70.259 50.693c0.197 0 0.397-0.039 0.591-0.122l5.764-2.473c0.761-0.327 1.113-1.208 0.787-1.97-0.327-0.762-1.207-1.114-1.971-0.787l-5.764 2.473c-0.761 0.327-1.113 1.208-0.787 1.97C69.123 50.353 69.677 50.693 70.259 50.693z" fill="#ff46c5" data-fill-palette-color="accent"></path><path d="M75.383 71.594l-5.763-2.473c-0.766-0.33-1.645 0.026-1.971 0.787s0.026 1.643 0.787 1.97l5.763 2.473c0.193 0.083 0.394 0.122 0.591 0.122 0.582 0 1.136-0.341 1.38-0.909C76.497 72.803 76.144 71.921 75.383 71.594z" fill="#ff46c5" data-fill-palette-color="accent"></path><path d="M77.303 58.353l-6.271-0.013c-0.001 0-0.002 0-0.003 0-0.827 0-1.498 0.669-1.5 1.497-0.002 0.828 0.668 1.501 1.497 1.503l6.271 0.013c0 0 0.002 0 0.003 0 0.827 0 1.498-0.669 1.5-1.497C78.802 59.028 78.132 58.355 77.303 58.353z" fill="#ff46c5" data-fill-palette-color="accent"></path></g></svg></g></svg></g><g id="text-0"><path d="M60.314 83.585v0c-2.811 6.285-6.465 10.333-10.964 12.144-4.498 1.811-9.609 1.438-15.331-1.121v0l-7.357-3.29c-5.81-2.598-9.624-6.081-11.441-10.447-1.821-4.36-1.457-9.389 1.091-15.087v0c1.715-3.836 3.858-6.716 6.428-8.64 2.573-1.931 5.461-2.959 8.666-3.085 3.196-0.122 6.612 0.629 10.248 2.256v0l1.527 0.683c0.9 0.402 1.787 0.84 2.662 1.314 0.869 0.471 1.715 0.958 2.54 1.462v0l-2.821 6.306c-1.33-0.662-2.598-1.274-3.801-1.834-1.206-0.555-2.316-1.058-3.327-1.511v0c-2.511-1.123-4.812-1.669-6.904-1.637-2.094 0.023-3.957 0.626-5.587 1.808-1.625 1.185-2.973 2.977-4.046 5.376v0c-1.59 3.555-1.754 6.679-0.492 9.372 1.268 2.696 3.817 4.901 7.646 6.613v0l3.936 1.76 0.86 0.34 3.936 1.76c1.718 0.768 3.382 1.205 4.991 1.311 1.613 0.114 3.163-0.149 4.648-0.789 1.483-0.634 2.863-1.673 4.139-3.119 1.267-1.442 2.418-3.319 3.452-5.631v0c1.199-2.68 1.962-5.334 2.29-7.961 0.328-2.627 0.34-5.227 0.035-7.799v0l5.638 3.286c0.337 2.347 0.31 4.888-0.081 7.622-0.397 2.731-1.257 5.577-2.581 8.538zM47.737 61.217l-13.125 29.349-5.164-2.309 13.126-29.349z" fill="#ff46c5" data-fill-palette-color="accent"></path><path d="M82.505 52.826l0.943-0.601-10.997-40.515 6.562-4.182 11.926 46.021-10.396 6.627-36.684-30.241 6.562-4.183z" fill="#ff46c5" data-fill-palette-color="accent"></path><path d="M125.796 47.365v0c-6.88 0.244-12.124-1.254-15.732-4.495-3.607-3.241-5.522-7.994-5.744-14.259v0l-0.286-8.053c-0.226-6.36 1.221-11.318 4.341-14.873 3.113-3.555 7.788-5.443 14.025-5.664v0c4.199-0.149 7.729 0.506 10.588 1.966 2.866 1.46 5.062 3.6 6.586 6.422 1.517 2.815 2.347 6.213 2.488 10.194v0l0.059 1.672c0.035 0.985 0.032 1.974-0.007 2.969-0.04 0.988-0.105 1.962-0.194 2.924v0l-6.904 0.245c0.009-1.486 0-2.893-0.027-4.221-0.033-1.327-0.07-2.545-0.109-3.653v0c-0.098-2.749-0.621-5.056-1.571-6.918-0.943-1.87-2.304-3.277-4.083-4.221-1.779-0.937-3.982-1.358-6.609-1.265v0c-3.891 0.138-6.768 1.367-8.631 3.686-1.862 2.326-2.719 5.585-2.57 9.777v0l0.153 4.309 0.074 0.921 0.153 4.309c0.067 1.881 0.407 3.567 1.021 5.059 0.608 1.499 1.526 2.774 2.755 3.826 1.222 1.052 2.763 1.833 4.624 2.342 1.853 0.503 4.045 0.709 6.575 0.619v0c2.934-0.104 5.653-0.587 8.155-1.45 2.503-0.863 4.842-1.997 7.018-3.403v0l-0.467 6.509c-1.959 1.336-4.252 2.431-6.878 3.284-2.627 0.846-5.561 1.327-8.803 1.443zM140.34 26.224l-32.13 1.14-0.201-5.652 32.13-1.141z" fill="#ff46c5" data-fill-palette-color="accent"></path><path d="M180.168 69.288l-6.455-3.826 14.334-24.188c1.246-2.102 2.031-4.078 2.357-5.93 0.326-1.851 0.093-3.58-0.697-5.186-0.794-1.6-2.306-3.061-4.538-4.383v0c-2.049-1.214-4.052-1.88-6.011-1.999-1.958-0.118-3.792 0.203-5.499 0.964-1.712 0.767-3.248 1.877-4.611 3.33v0l1.56-5.269 1.395 0.827c1.469-1.5 3.163-2.66 5.081-3.48 1.924-0.817 4.035-1.125 6.335-0.923 2.308 0.199 4.764 1.069 7.366 2.611v0c3.085 1.828 5.228 3.89 6.429 6.185 1.211 2.293 1.604 4.797 1.18 7.512-0.421 2.71-1.575 5.657-3.462 8.843v0zM154.144 53.865l-6.456-3.826 23.053-38.9 6.456 3.826-5.809 9.158 0.068 0.529z" fill="#ff46c5" data-fill-palette-color="accent"></path><path d="M188.417 92.095v0c-1.53-3.137-2.293-5.894-2.287-8.273 0.014-2.375 0.768-4.459 2.26-6.253 1.493-1.794 3.669-3.389 6.529-4.784v0l25.649-12.511 3.249 6.661-24.855 12.124c-2.663 1.299-4.33 2.87-5 4.712-0.667 1.833-0.295 4.195 1.115 7.085v0c0.798 1.636 1.748 3.122 2.849 4.459 1.095 1.339 2.303 2.512 3.624 3.52v0l-6.1 2.199c-1.3-0.98-2.572-2.252-3.814-3.816-1.24-1.558-2.312-3.265-3.219-5.123zM228.563 84.368l-14.28-29.275 5.407-2.637 14.581 29.893zM225.443 65.936l-3.146-6.449 11.39-5.613 4.189 6.363z" fill="#ff46c5" data-fill-palette-color="accent"></path><path d="M17.33 179.838v0c-2.695-6.119-3.231-11.386-1.609-15.803 1.628-4.419 5.23-7.855 10.803-10.31v0l7.159-3.152c5.655-2.491 10.649-2.97 14.98-1.438 4.325 1.535 7.708 5.074 10.149 10.617v0c1.644 3.733 2.324 7.153 2.041 10.262-0.284 3.108-1.425 5.858-3.423 8.248-1.995 2.381-4.764 4.353-8.309 5.914v0l-1.484 0.654c-0.877 0.386-1.769 0.738-2.676 1.055-0.907 0.317-1.81 0.61-2.709 0.878v0l-2.702-6.134c1.337-0.529 2.602-1.045 3.794-1.548 1.183-0.506 2.269-0.977 3.259-1.412v0c2.443-1.076 4.334-2.376 5.674-3.901 1.346-1.528 2.122-3.264 2.327-5.209 0.214-1.941-0.193-4.08-1.222-6.416v0c-1.523-3.457-3.666-5.609-6.431-6.455-2.765-0.846-6.015-0.447-9.748 1.197v0l-3.833 1.688-0.8 0.398-3.833 1.688c-1.672 0.736-3.073 1.649-4.202 2.736-1.129 1.088-1.945 2.375-2.45 3.861-0.514 1.482-0.664 3.153-0.451 5.01 0.213 1.858 0.814 3.911 1.804 6.16v0c1.15 2.612 2.565 4.89 4.244 6.835 1.673 1.948 3.537 3.651 5.592 5.109v0l-6.041 1.92c-1.913-1.288-3.725-2.966-5.435-5.032-1.707-2.06-3.197-4.533-4.469-7.42zM41.635 185.364l-12.585-28.578 5.026-2.214 12.586 28.578z" fill="#ff46c5" data-fill-palette-color="accent"></path><path d="M63.591 221.245l0.915 0.588 31.238-26.194 6.359 4.081-35.712 29.25-10.074-6.465 11.712-44.651 6.359 4.081z" fill="#ff46c5" data-fill-palette-color="accent"></path><path d="M124.072 244.408v0c-6.682-0.23-11.66-2.035-14.933-5.414-3.273-3.386-4.804-8.122-4.595-14.209v0l0.269-7.818c0.213-6.176 1.95-10.882 5.212-14.118 3.261-3.229 7.918-4.74 13.971-4.531v0c4.076 0.14 7.453 1.013 10.129 2.619 2.677 1.606 4.658 3.827 5.944 6.665 1.279 2.831 1.852 6.182 1.718 10.054v0l-0.056 1.62c-0.033 0.958-0.104 1.914-0.212 2.869-0.108 0.955-0.236 1.895-0.385 2.822v0l-6.699-0.231c0.104-1.434 0.189-2.798 0.254-4.09 0.058-1.285 0.106-2.468 0.143-3.549v0c0.092-2.667-0.258-4.936-1.05-6.804-0.791-1.876-2.018-3.329-3.681-4.359-1.656-1.036-3.759-1.598-6.31-1.686v0c-3.775-0.13-6.645 0.867-8.607 2.99-1.963 2.124-3.015 5.223-3.156 9.3v0l-0.144 4.186 0.01 0.893-0.144 4.186c-0.063 1.826 0.15 3.484 0.64 4.973 0.49 1.489 1.294 2.784 2.414 3.884 1.112 1.107 2.551 1.968 4.317 2.583 1.766 0.615 3.877 0.966 6.332 1.05v0c2.852 0.098 5.519-0.186 8-0.855 2.481-0.661 4.824-1.6 7.03-2.818v0l-0.894 6.276c-1.992 1.164-4.289 2.067-6.893 2.71-2.597 0.643-5.472 0.911-8.625 0.802zM139.606 224.914l-31.209-1.075 0.19-5.489 31.208 1.075z" fill="#ff46c5" data-fill-palette-color="accent"></path><path d="M202.657 214.335l-6.255 3.741-14.014-23.435c-1.215-2.032-2.538-3.617-3.968-4.756-1.43-1.138-3.013-1.738-4.749-1.801-1.73-0.066-3.675 0.547-5.837 1.84v0c-1.985 1.187-3.48 2.587-4.485 4.201-1.011 1.617-1.584 3.331-1.72 5.143-0.142 1.815 0.092 3.641 0.703 5.476v0l-3.774-3.771 1.348-0.806c-0.604-1.943-0.809-3.926-0.615-5.948 0.188-2.018 0.903-3.964 2.143-5.838 1.23-1.876 3.108-3.569 5.634-5.079v0c2.984-1.784 5.737-2.661 8.258-2.63 2.516 0.034 4.834 0.857 6.954 2.468 2.117 1.62 4.1 3.975 5.947 7.064v0zM177.443 229.413l-6.247 3.736-22.533-37.681 6.247-3.736 5.136 9.189 0.475 0.194z" fill="#ff46c5" data-fill-palette-color="accent"></path><path d="M230.416 172.857v0c-1.465 3.054-3.104 5.293-4.916 6.715-1.816 1.429-3.86 2.114-6.133 2.057-2.263-0.061-4.789-0.76-7.578-2.097v0l-24.982-11.98 3.112-6.488 24.213 11.611c2.598 1.246 4.796 1.568 6.596 0.966 1.802-0.593 3.378-2.296 4.727-5.11v0c0.766-1.598 1.327-3.219 1.683-4.863 0.355-1.643 0.52-3.268 0.494-4.875v0l5.343 3.314c0.038 1.582-0.163 3.315-0.602 5.199-0.434 1.887-1.086 3.737-1.957 5.551zM200.329 146.953l-13.676 28.517-5.275-2.53 13.968-29.128zM188.173 160.432l-3.014 6.284-11.134-5.293 2.318-7.018z" fill="#ff46c5" data-fill-palette-color="accent"></path><path d="M4.289 122.571c0-12.13 9.833-21.963 21.963-21.963 12.13 0 21.963 9.833 21.963 21.963 0 12.13-9.833 21.963-21.963 21.963-12.13 0-21.963-9.833-21.963-21.963z" fill="#ff46c5" data-fill-palette-color="accent"></path><path d="M196.216 122.571c0-12.13 9.833-21.963 21.963-21.963 12.13 0 21.963 9.833 21.963 21.963 0 12.13-9.833 21.963-21.963 21.963-12.13 0-21.963-9.833-21.963-21.963z" fill="#ff46c5" data-fill-palette-color="accent"></path></g><g id="text-1"></g></svg></g></svg></g></svg></g><defs></defs></svg><rect width="395.52" height="137.44668324286098" fill="none" stroke="none" visibility="hidden"></rect></g></svg></g></svg>