<svg xmlns="http://www.w3.org/2000/svg" version="1.1" xmlns:xlink="http://www.w3.org/1999/xlink" xmlns:svgjs="http://svgjs.dev/svgjs" width="2000" height="818" viewBox="0 0 2000 818"><g transform="matrix(1,0,0,1,-1.2121212121212466,0.35220671188938013)"><svg viewBox="0 0 396 162" data-background-color="#ffffff" preserveAspectRatio="xMidYMid meet" height="818" width="2000" xmlns="http://www.w3.org/2000/svg" xmlns:xlink="http://www.w3.org/1999/xlink"><g id="tight-bounds" transform="matrix(1,0,0,1,0.2400000000000091,-0.06975242949398819)"><svg viewBox="0 0 395.52 162.13950485898798" height="162.13950485898798" width="395.52"><g><svg viewBox="0 0 720.3966623080117 295.3194734240711" height="162.13950485898798" width="395.52"><g><rect width="12.900967876431775" height="295.3194734240711" x="278.20352721578996" y="0" fill="#e69500" opacity="1" stroke-width="0" stroke="transparent" fill-opacity="1" class="rect-yte-0" data-fill-palette-color="primary" rx="1%" id="yte-0" data-palette-color="#e69500"></rect></g><g transform="matrix(1,0,0,1,324.8766623080117,0.734625555781264)"><svg viewBox="0 0 395.52 293.85022231250855" height="293.85022231250855" width="395.52"><g id="textblocktransform"><svg viewBox="0 0 395.52 293.85022231250855" height="293.85022231250855" width="395.52" id="textblock"><g><svg viewBox="0 0 395.52 143.05633446767135" height="143.05633446767135" width="395.52"><g transform="matrix(1,0,0,1,0,0)"><svg width="395.52" viewBox="0.15 -33.2 102.83999999999999 37.2" height="143.05633446767135" data-palette-color="#e69500"><path d="M25.2-20.35L25.2-20.35Q30.1-20.35 30.1-18.5L30.1-18.5Q30.1-18.1 29.8-17.6L29.8-17.6Q28.6-15.75 25.45-15.75L25.45-15.75Q23.4-15.75 21.25-16.48 19.1-17.2 18-18L18-18Q13.35-16.65 9.73-13.85 6.1-11.05 4.3-7.5L4.3-7.5Q3.35-5.6 3.35-3.8L3.35-3.8Q3.35-1 5.68 0.75 8 2.5 12.5 2.5L12.5 2.5Q13.75 2.5 15.1 2.35L15.1 2.35Q23.05 1.5 27.75-2.75L27.75-2.75Q31.7-6.25 31.7-10.1L31.7-10.1Q31.7-13.15 28.75-13.15L28.75-13.15Q25.2-13.15 20.6-9.35L20.6-9.35Q19.45-8.4 18.65-6.95 17.85-5.5 17.85-4.1 17.85-2.7 19.25-2.35L19.25-2.35Q19.75-2.15 19.75-1.85L19.75-1.85Q19.75-1.35 18.75-1.45L18.75-1.45Q16.35-1.5 16.35-4.6 16.35-7.7 19.5-10.4L19.5-10.4Q23.8-14.1 28.6-14.1L28.6-14.1Q32.2-14.1 33.15-11.85L33.15-11.85Q33.55-10.8 33.55-9.75L33.55-9.75Q33.55-5.1 28.4-1L28.4-1Q22.25 4 12.8 4L12.8 4Q6.95 4 3.55 1.83 0.15-0.35 0.15-3.85L0.15-3.85Q0.15-5.9 1.45-7.95L1.45-7.95Q6.05-15.25 17.15-18.8L17.15-18.8Q15.5-20.7 15.5-22.85 15.5-25 16.55-26.45L16.55-26.45Q18.6-29.25 22.7-31.05L22.7-31.05Q27.6-33.2 32.5-33.2L32.5-33.2Q35.35-33.2 37.08-32.27 38.8-31.35 38.8-29.43 38.8-27.5 37.38-26.18 35.95-24.85 34.4-24.85 32.85-24.85 32.85-25.6L32.85-25.6Q32.85-26.05 33.5-26.05L33.5-26.05 34.5-25.9Q35.5-25.9 36.33-26.98 37.15-28.05 37.15-29.2L37.15-29.2Q37.15-30.9 35.2-31.7L35.2-31.7Q33.95-32.2 32.85-32.2 31.75-32.2 31.3-32.15L31.3-32.15Q27-31.9 22.9-29.15L22.9-29.15Q18.1-26 18.1-22.05L18.1-22.05Q18.1-20.6 19.1-19.35L19.1-19.35Q22.3-20.35 25.2-20.35ZM19.95-18.55L19.95-18.55Q22.1-16.85 24.9-16.85 27.7-16.85 27.7-18.4L27.7-18.4Q27.7-19.1 25.2-19.1 22.7-19.1 19.95-18.55ZM48.1-19.65L48.1-19.65Q49.6-19.65 50.65-18.65 51.7-17.65 51.7-15.85L51.7-15.85Q51.7-11.9 45.15-5.95L45.15-5.95Q39.6-0.95 36.2 0.15L36.2 0.15Q35.65 0.15 34.75-0.45 33.85-1.05 33.85-1.55L33.85-1.55Q33.85-2.65 36.25-9 38.65-15.35 39.55-16.1L39.55-16.1Q39.75-16.3 40.2-16.3 40.65-16.3 41.15-15.83 41.65-15.35 41.7-14.7L41.7-14.7Q41.7-14.65 39.22-8.9 36.75-3.15 36.9-2.05L36.9-2.05Q39.05-2.7 44.57-7.3 50.1-11.9 50.1-15.55L50.1-15.55Q50.1-17.75 47.9-18.75L47.9-18.75Q47.55-18.9 47.55-19.2L47.55-19.2Q47.55-19.65 48.1-19.65ZM52.15 0.65L52.15 0.65Q51.6 0.65 51.15 0.5L51.15 0.5Q47.95-0.4 47.95-3.1L47.95-3.1Q47.95-6.6 52.35-11.2 56.75-15.8 60.25-15.8L60.25-15.8Q61.4-15.8 62.12-15.18 62.85-14.55 62.85-13.65L62.85-13.65Q62.85-10.85 58.62-8.3 54.4-5.75 51.75-5.75L51.75-5.75Q51.35-5.75 51.05-5.85L51.05-5.85Q50.3-4.5 50.3-3L50.3-3Q50.3-0.4 52.77-0.4 55.25-0.4 59.2-3.75L59.2-3.75Q62.25-6.2 64.4-8.95L64.4-8.95Q64.85-9.55 65.17-9.55 65.5-9.55 65.5-9.25 65.5-8.95 65.1-8.4L65.1-8.4Q62.4-4.85 58.6-2.1 54.8 0.65 52.15 0.65ZM61.6-13.75L61.6-13.75Q61.6-14.35 60.32-14.35 59.05-14.35 56.7-12.4L56.7-12.4Q53.55-9.8 51.8-6.95L51.8-6.95Q52.1-6.85 52.45-6.85L52.45-6.85Q54.35-6.85 57.52-8.88 60.7-10.9 61.5-13.3L61.5-13.3Q61.6-13.55 61.6-13.75ZM70.49-15.8L70.49-15.8Q71.84-15.8 71.84-14.75L71.84-14.75Q71.84-14.45 71.69-14.15L71.69-14.15Q67.19-7.9 66.29-4.7L66.29-4.7Q77.94-16.35 80.44-16.35L80.44-16.35Q80.69-16.4 80.89-16.4L80.89-16.4Q82.29-16.4 82.29-15.15L82.29-15.15Q82.29-14.9 82.19-14.65 82.09-14.4 80.19-11.95L80.19-11.95Q77.99-9.35 76.47-6.95 74.94-4.55 74.94-2.95 74.94-1.35 75.64-1.35L75.64-1.35Q77.84-1.35 83.29-7.4L83.29-7.4Q83.39-7.5 83.64-7.85L83.64-7.85Q84.39-8.75 84.54-8.75 84.69-8.75 84.69-8.25 84.69-7.75 83.99-6.95L83.99-6.95Q77.79 0.1 75.19 0.1L75.19 0.1Q72.74 0.1 72.74-2.6 72.74-5.3 74.74-8.8L74.74-8.8 77.94-14Q74.54-11.5 71.89-8.53 69.24-5.55 67.07-2.75 64.89 0.05 64.54 0.05L64.54 0.05Q63.79 0.05 63.37-0.58 62.94-1.2 62.94-2.13 62.94-3.05 63.59-4.6 64.24-6.15 65.24-8.35L65.24-8.35 62.24-5.2Q61.14-4.1 60.87-4.1 60.59-4.1 60.59-4.42 60.59-4.75 60.99-5.15L60.99-5.15Q62.84-7 64.19-8.7L64.19-8.7Q65.49-10.4 69.54-15.2L69.54-15.2Q69.99-15.8 70.49-15.8ZM95.64-16.1L95.64-16.1 102.84-16.2Q102.99-16.1 102.99-16.05L102.99-16.05Q102.99-15.6 96.77-14.8 90.54-14 90.04-13.85L90.04-13.85Q89.09-13 86.54-8.78 83.99-4.55 83.99-2.6L83.99-2.6Q83.99-0.75 86.54-0.75L86.54-0.75Q87.74-0.75 89.69-1.5 91.64-2.25 92.69-2.9L92.69-2.9Q95.49-4.65 98.69-8.05L98.69-8.05Q99.39-8.75 99.64-8.75L99.64-8.75Q99.79-8.75 99.79-8.45 99.79-8.15 99.04-7.25L99.04-7.25Q96.44-4.05 93.19-2.1L93.19-2.1Q89.29 0.3 85.74 0.3L85.74 0.3Q84.19 0.3 83.22-0.38 82.24-1.05 82.24-3.1 82.24-5.15 84.04-8.72 85.84-12.3 86.79-14.05L86.79-14.05Q86.09-13.9 85.59-13.9L85.59-13.9Q84.14-13.9 84.14-15.05L84.14-15.05Q84.14-15.9 85.34-16.25L85.34-16.25Q85.49-16.25 85.79-16.3L85.79-16.3 88.69-16.3Q89.59-17.45 90.74-18.95L90.74-18.95Q92.14-20.75 92.64-20.75 93.14-20.75 93.89-20.35 94.64-19.95 94.64-19.4 94.64-18.85 92.24-16.15L92.24-16.15Q93.54-16.1 95.64-16.1Z" opacity="1" transform="matrix(1,0,0,1,0,0)" fill="#e69500" class="wordmark-text-0" data-fill-palette-color="primary" id="text-0"></path></svg></g></svg></g><g transform="matrix(1,0,0,1,0,176.82850168346133)"><svg viewBox="0 0 395.52 117.02172062904718" height="117.02172062904718" width="395.52"><g transform="matrix(1,0,0,1,0,0)"><svg width="395.52" viewBox="2.37 -36.08 158.34 46.85" height="117.02172062904718" data-palette-color="#996300"><path d="M13.01-34.35L13.89-34.35Q20.41-34.35 22.66-33.2L22.66-33.2Q24.34-32.35 24.34-28.81 24.34-25.27 23.14-25.27L23.14-25.27Q22.17-25.27 19.95-27.33 17.72-29.39 16.58-30.03 15.43-30.66 13.59-30.66 11.74-30.66 10.44-29.47 9.13-28.27 9.13-26.61L9.13-26.61Q9.13-24.39 11.57-22.63L11.57-22.63Q12.79-21.75 17.21-19.78 21.63-17.8 23.51-15.89L23.51-15.89Q26.17-13.18 26.17-9.79L26.17-9.79Q26.17-2.71 19.17-0.24L19.17-0.24Q17.09 0.49 14.92 0.49L14.92 0.49 14.04 0.49Q11.35 0.49 8.08-0.12 4.81-0.73 3.96-1.32L3.96-1.32Q2.37-2.42 2.37-6.42L2.37-6.42 2.37-7.25Q2.37-9.84 3.76-9.84L3.76-9.84Q4.74-9.84 6.86-7.35 8.98-4.86 10.44-4.03 11.89-3.2 14.15-3.2 16.41-3.2 17.94-4.49 19.48-5.79 19.48-7.3L19.48-7.3Q19.48-9.57 18.12-11.04 16.75-12.5 12.67-14.38 8.59-16.26 7.03-17.41L7.03-17.41Q2.73-20.58 2.73-25.02L2.73-25.02Q2.73-25.95 2.93-26.95L2.93-26.95Q3.74-31.15 8.33-33.3L8.33-33.3Q10.57-34.35 13.01-34.35L13.01-34.35ZM48.65-11.55L48.63-11.82 48.58-13.16Q48.58-16.28 46.82-18.68L46.82-18.68Q45.51-20.46 43.31-20.46L43.31-20.46 43.11-20.43Q40.99-20.43 39.79-18.75L39.79-18.75Q39.04-17.7 39.04-15.21L39.04-15.21 38.99-14.75 38.91-12.6 38.91-10.4 38.94-10.16 38.94-9.69 38.96-9.45Q38.96-9.2 38.96-8.96L38.96-8.96 39.01-8.25 39.06-7.32Q39.06-5.3 40.18-4.08 41.31-2.86 43.09-2.86L43.09-2.86 43.53-2.86Q45.92-2.86 47.51-5.52L47.51-5.52Q48.65-7.42 48.65-11.25L48.65-11.25 48.65-11.55ZM39.4 3.42L39.4 3.42Q39.4 5.42 40.48 6.84L40.48 6.84 41.55 7.91Q42.43 8.79 42.43 9.38L42.43 9.38Q42.43 10.16 41.34 10.45 40.26 10.74 36.67 10.74L36.67 10.74 36.03 10.77Q31.91 10.77 30.94 10.45 29.98 10.13 29.98 9.45L29.98 9.45Q29.98 9.18 31.17 7.3 32.37 5.42 32.66 3.42L32.66 3.42Q32.76 2.76 32.76-7.06 32.76-16.87 32.54-17.91 32.32-18.95 30.98-19.86 29.64-20.78 29.64-21.61 29.64-22.44 30.78-22.83L30.78-22.83Q34.01-23.9 36.84-23.9L36.84-23.9Q37.6-23.9 37.95-23.55 38.3-23.19 38.64-22.66 38.99-22.12 39.33-22.12 39.67-22.12 40.61-22.66 41.55-23.19 42.76-23.69 43.97-24.19 45.94-24.19L45.94-24.19 46.6-24.19Q48.36-24.19 50.16-23.25 51.95-22.31 53.2-20.78L53.2-20.78Q55.71-17.63 55.71-12.94L55.71-12.94Q55.71-7.15 52.34-3.52L52.34-3.52Q50.58-1.61 48.53-0.84 46.48-0.07 43.89-0.07L43.89-0.07Q43.87-0.07 42.04-0.27L42.04-0.27 40.99-0.39 40.5-0.46Q39.4-0.46 39.4 3.42ZM87.3-1.56L87.3-1.56Q87.3-0.42 85.66-0.06 84.03 0.29 81 0.29 77.97 0.29 77.07-0.1 76.17-0.49 76.17-1.42L76.17-1.42Q76.17-1.81 76.8-3 77.44-4.2 77.68-5.02 77.92-5.83 77.92-10.94 77.92-16.04 77.07-17.83 76.22-19.63 73.84-19.63 71.45-19.63 70.2-18.03 68.94-16.43 68.94-12.21L68.94-12.21Q68.94-10.82 69.28-7.91 69.62-5 70.26-3.49 70.89-1.98 70.89-1.83L70.89-1.83Q70.89-0.73 69.58-0.44L69.58-0.44Q67.65-0.02 63.75-0.02 59.86-0.02 59.86-1.22L59.86-1.22Q59.86-2.08 60.99-3.66 62.13-5.25 62.29-6.42 62.45-7.59 62.45-18.14 62.45-28.69 62.12-29.98 61.79-31.27 61.05-31.93L61.05-31.93Q59.32-33.5 59.32-33.69L59.32-33.69Q59.32-34.69 60.37-35.13L60.37-35.13Q62.62-36.08 66.33-36.08L66.33-36.08Q68.11-36.08 68.62-34.79L68.62-34.79Q68.94-33.98 68.94-28.53 68.94-23.07 69.04-22.73L69.04-22.73Q69.28-21.88 70.04-21.88L70.04-21.88Q70.36-21.88 71.43-22.36L71.43-22.36Q74.41-23.73 76.85-23.73L76.85-23.73Q81.27-23.73 83.1-20.24L83.1-20.24Q84.42-17.72 84.42-11.65 84.42-5.57 84.76-4.76 85.1-3.96 86.2-2.91 87.3-1.86 87.3-1.56ZM102.34-20.83L102.34-20.83 101.63-20.83Q100.09-20.83 98.69-19.23 97.28-17.63 97.28-15.41L97.28-15.41 97.28-15.01Q97.28-14.11 98.28-14.11L98.28-14.11 98.53-14.06 100.26-14.06 100.38-14.09 104.46-14.33Q104.83-14.4 104.95-14.4L104.95-14.4Q106.19-14.4 106.19-15.7L106.19-15.7 106.19-16.5Q106.19-18.14 105.02-19.48 103.85-20.83 102.34-20.83ZM97.58-9.2L97.58-9.2Q97.58-6.76 99.87-4.98L99.87-4.98Q101.58-3.64 104.22-3.64L104.22-3.64Q105.41-3.64 107.77-4.32 110.12-5 110.49-5L110.49-5Q111.59-5 111.59-3.81L111.59-3.81Q111.59-2.39 108.67-0.94 105.75 0.51 102.63 0.51L102.63 0.51 101.56 0.51Q101.51 0.51 101.43 0.51L101.43 0.51Q99.46 0.51 97.4-0.29L97.4-0.29Q93.35-1.86 91.64-5.76L91.64-5.76Q90.47-8.45 90.47-10.86L90.47-10.86 90.47-11.99Q90.47-14.45 91.33-16.75L91.33-16.75Q92.94-21.07 97.01-22.97L97.01-22.97Q99.46-24.1 102.14-24.1L102.14-24.1 102.7-24.1Q106.68-24.1 109.42-21.63L109.42-21.63Q110.86-20.31 111.63-18.46 112.39-16.6 112.39-14.69 112.39-12.77 110.51-12.16L110.51-12.16Q107.88-11.3 100.75-11.3L100.75-11.3Q98.85-11.3 98.21-10.83 97.58-10.35 97.58-9.2ZM127.77-21.31Q130.61-23.27 132.61-23.27 134.61-23.27 135.33-22.41 136.05-21.56 136.05-20.36 136.05-19.17 135.4-18.23 134.76-17.29 133.94-17.29 133.12-17.29 131.68-17.92 130.24-18.55 129.46-18.55 128.68-18.55 127.7-17.72 126.72-16.89 126.34-15.36 125.97-13.82 125.97-10.53 125.97-7.25 126.43-6.29 126.89-5.32 128.33-3.76 129.78-2.2 129.78-1.2L129.78-1.2Q129.78-0.02 124.11-0.02L124.11-0.02 122.01-0.02 121.5-0.05Q120.99-0.07 120.45-0.07L120.45-0.07 119.94-0.1Q119.42-0.12 118.86-0.12L118.86-0.12Q116.3-0.12 116.3-1.22 116.3-2.32 117.58-3.44 118.86-4.57 119.14-5.47 119.42-6.37 119.42-11.67 119.42-16.97 119.09-18.02 118.76-19.07 117.51-19.81 116.25-20.56 116.25-21.36L116.25-21.36Q116.25-22.49 117.93-22.95L117.93-22.95Q120.47-23.63 122.52-23.63 124.57-23.63 125.28-23.17L125.28-23.17Q125.58-22.97 125.95-21.92 126.33-20.87 126.85-20.87L126.85-20.87Q127.07-20.87 127.77-21.31L127.77-21.31ZM150.65-20.83L150.65-20.83 149.94-20.83Q148.4-20.83 147-19.23 145.59-17.63 145.59-15.41L145.59-15.41 145.59-15.01Q145.59-14.11 146.59-14.11L146.59-14.11 146.84-14.06 148.57-14.06 148.69-14.09 152.77-14.33Q153.14-14.4 153.26-14.4L153.26-14.4Q154.5-14.4 154.5-15.7L154.5-15.7 154.5-16.5Q154.5-18.14 153.33-19.48 152.16-20.83 150.65-20.83ZM145.89-9.2L145.89-9.2Q145.89-6.76 148.18-4.98L148.18-4.98Q149.89-3.64 152.53-3.64L152.53-3.64Q153.72-3.64 156.08-4.32 158.43-5 158.8-5L158.8-5Q159.9-5 159.9-3.81L159.9-3.81Q159.9-2.39 156.98-0.94 154.06 0.51 150.94 0.51L150.94 0.51 149.87 0.51Q149.82 0.51 149.74 0.51L149.74 0.51Q147.77 0.51 145.72-0.29L145.72-0.29Q141.66-1.86 139.95-5.76L139.95-5.76Q138.78-8.45 138.78-10.86L138.78-10.86 138.78-11.99Q138.78-14.45 139.64-16.75L139.64-16.75Q141.25-21.07 145.32-22.97L145.32-22.97Q147.77-24.1 150.45-24.1L150.45-24.1 151.01-24.1Q154.99-24.1 157.73-21.63L157.73-21.63Q159.17-20.31 159.94-18.46 160.71-16.6 160.71-14.69 160.71-12.77 158.83-12.16L158.83-12.16Q156.19-11.3 149.06-11.3L149.06-11.3Q147.16-11.3 146.52-10.83 145.89-10.35 145.89-9.2Z" opacity="1" transform="matrix(1,0,0,1,0,0)" fill="#996300" class="slogan-text-1" data-fill-palette-color="secondary" id="text-1"></path></svg></g></svg></g></svg></g></svg></g><g transform="matrix(1,0,0,1,0,25.71325424507522)"><svg viewBox="0 0 244.43135999999998 243.89296493392064" height="243.89296493392064" width="244.43135999999998"><g><svg xmlns:x="http://ns.adobe.com/Extensibility/1.0/" xmlns:i="http://ns.adobe.com/AdobeIllustrator/10.0/" xmlns:graph="http://ns.adobe.com/Graphs/1.0/" xmlns="http://www.w3.org/2000/svg" xmlns:xlink="http://www.w3.org/1999/xlink" version="1.1" x="0" y="0" viewBox="4.6 4.7 90.80000000000001 90.6" enable-background="new 0 0 100 100" xml:space="preserve" height="243.89296493392064" width="244.43135999999998" class="icon-icon-0" data-fill-palette-color="accent" id="icon-0"><path d="M37.6 48.8C37.6 49.6 36.9 50.3 36.1 50.3H30.5C29.7 50.3 29 49.6 29 48.8V43.2C29 42.4 29.7 41.7 30.5 41.7H36.1C36.9 41.7 37.6 42.4 37.6 43.2zM49.4 43.2C49.4 42.4 48.7 41.7 47.9 41.7H42.3C41.5 41.7 40.8 42.4 40.8 43.2V48.8C40.8 49.6 41.5 50.3 42.3 50.3H47.9C48.7 50.3 49.4 49.6 49.4 48.8zM61.2 43.2C61.2 42.4 60.5 41.7 59.7 41.7H54C53.2 41.7 52.5 42.4 52.5 43.2V48.8C52.5 49.6 53.2 50.3 54 50.3H59.6C60.4 50.3 61.1 49.6 61.1 48.8V43.2zM37.6 54.6C37.6 53.8 36.9 53.1 36.1 53.1H30.5C29.7 53.1 29 53.8 29 54.6V60.2C29 61 29.7 61.7 30.5 61.7H36.1C36.9 61.7 37.6 61 37.6 60.2zM49.4 54.6C49.4 53.8 48.7 53.1 47.9 53.1H42.3C41.5 53.1 40.8 53.8 40.8 54.6V60.2C40.8 61 41.5 61.7 42.3 61.7H47.9C48.7 61.7 49.4 61 49.4 60.2zM59.7 53.1H54C53.2 53.1 52.5 53.8 52.5 54.6V60.2C52.5 61 53.2 61.7 54 61.7H59.6C60.4 61.7 61.1 61 61.1 60.2V54.6C61.2 53.8 60.5 53.1 59.7 53.1M24.3 64.6H18.7C17.9 64.6 17.2 65.3 17.2 66.1V71.7C17.2 72.5 17.9 73.2 18.7 73.2H24.3C25.1 73.2 25.8 72.5 25.8 71.7V66.1C25.8 65.3 25.2 64.6 24.3 64.6M25.8 54.6C25.8 53.8 25.1 53.1 24.3 53.1H18.7C17.9 53.1 17.2 53.8 17.2 54.6V60.2C17.2 61 17.9 61.7 18.7 61.7H24.3C25.1 61.7 25.8 61 25.8 60.2zM47.9 64.6H42.3C41.5 64.6 40.8 65.3 40.8 66.1V71.7C40.8 72.5 41.5 73.2 42.3 73.2H47.9C48.7 73.2 49.4 72.5 49.4 71.7V66.1C49.4 65.3 48.7 64.6 47.9 64.6M36.1 64.6H30.5C29.7 64.6 29 65.3 29 66.1V71.7C29 72.5 29.7 73.2 30.5 73.2H36.1C36.9 73.2 37.6 72.5 37.6 71.7V66.1C37.6 65.3 36.9 64.6 36.1 64.6M65.8 41.7C65 41.7 64.3 42.4 64.3 43.2V48.8C64.3 49.6 65 50.3 65.8 50.3H71.4C72.2 50.3 72.9 49.6 72.9 48.8V43.2C72.9 42.4 72.2 41.7 71.4 41.7zM4.6 22.2V76.6C4.6 81.5 8.6 85.4 13.4 85.4H56.2C55.5 83.2 55.1 80.9 55.1 78.6H13.5C12.4 78.6 11.5 77.7 11.5 76.6V36.4H78.6V55.2C81 55.2 83.3 55.6 85.4 56.2V22.2C85.4 17.3 81.4 13.4 76.6 13.4H66.7V7.9C66.7 6.1 65.3 4.7 63.5 4.7H58.5C56.7 4.7 55.3 6.1 55.3 7.9V13.4H34.9V7.9C34.9 6.1 33.5 4.7 31.7 4.7H26.7C24.9 4.7 23.5 6.1 23.5 7.9V13.4H13.6C8.6 13.4 4.6 17.4 4.6 22.2M95.4 78.4C95.4 87.7 87.8 95.3 78.5 95.3S61.6 87.7 61.6 78.4 69.2 61.5 78.5 61.5 95.4 69.1 95.4 78.4M87 74.7L83.8 71.5 76.4 78.9 73.3 75.8 69.9 79 73 82.1 76.2 85.4 79.5 82.2z" fill="#e69500" data-fill-palette-color="accent"></path></svg><g></g></g></svg></g></svg></g><defs></defs></svg><rect width="395.52" height="162.13950485898798" fill="none" stroke="none" visibility="hidden"></rect></g></svg></g></svg>